<svg id="svg" class="path" style="background-color: rgb(27, 48, 167);">
<path fill="#3930a5" stroke="#3930a5" d="M -210 877 L -210 0 C -159.375 0, -98.625 -8, -48 -8 C -6.125 -8, 44.125 14, 86 14 C 120.6875 14, 162.3125 -10, 197 -10 C 246.0625 -10, 304.9375 9, 354 9 C 406.8125 9, 470.1875 14, 523 14 L 585 0 L 585 877 Z"></path>
<path fill="#4d30a3" stroke="#4d30a3" d="M -210 877 L -217 22 C -179.1875 22, -133.8125 9, -96 9 C -44.75 9, 16.75 32, 68 32 C 109.875 32, 160.125 14, 202 14 C 243.5625 14, 293.4375 31, 335 31 C 373.4375 31, 419.5625 8, 458 8 L 585 22 L 585 877 Z"></path>
<path fill="#5c30a2" stroke="#5c30a2" d="M -210 877 L -224 44 C -178.0625 44, -122.9375 30, -77 30 C -14.8125 30, 59.8125 55, 122 55 C 165.4375 55, 217.5625 31, 261 31 C 308.1875 31, 364.8125 54, 412 54 L 585 44 L 585 877 Z"></path>
<path fill="#69309f" stroke="#69309f" d="M -210 877 L -231 66 C -182.25 66, -123.75 76, -75 76 C -35.3125 76, 12.3125 52, 52 52 C 94.5 52, 145.5 74, 188 74 C 244.25 74, 311.75 53, 368 53 C 419.5625 53, 481.4375 56, 533 56 L 585 66 L 585 877 Z"></path>
<path fill="#74319d" stroke="#74319d" d="M -210 877 L -238 88 C -178.625 88, -107.375 79, -48 79 C -16.75 79, 20.75 100, 52 100 C 98.875 100, 155.125 77, 202 77 C 256.6875 77, 322.3125 96, 377 96 L 585 88 L 585 877 Z"></path>
<path fill="#7e329b" stroke="#7e329b" d="M -210 877 L -245 111 C -206.875 111, -161.125 98, -123 98 C -63.9375 98, 6.9375 100, 66 100 C 107.25 100, 156.75 101, 198 101 C 242.0625 101, 294.9375 119, 339 119 C 384 119, 438 123, 483 123 L 585 111 L 585 877 Z"></path>
<path fill="#883499" stroke="#883499" d="M -210 877 L -252 133 C -220.125 133, -181.875 142, -150 142 C -103.4375 142, -47.5625 123, -1 123 C 61.1875 123, 135.8125 143, 198 143 C 235.8125 143, 281.1875 146, 319 146 C 371.8125 146, 435.1875 147, 488 147 L 585 133 L 585 877 Z"></path>
<path fill="#903697" stroke="#903697" d="M -210 877 L -259 155 C -218.6875 155, -170.3125 146, -130 146 C -75.625 146, -10.375 166, 44 166 C 95.25 166, 156.75 164, 208 164 C 260.8125 164, 324.1875 147, 377 147 L 585 155 L 585 877 Z"></path>
<path fill="#983995" stroke="#983995" d="M -210 877 L -266 177 C -212.875 177, -149.125 163, -96 163 C -63.1875 163, -23.8125 189, 9 189 C 54.9375 189, 110.0625 167, 156 167 C 192.5625 167, 236.4375 165, 273 165 C 330.1875 165, 398.8125 190, 456 190 L 585 177 L 585 877 Z"></path>
<path fill="#9f3c93" stroke="#9f3c93" d="M -210 877 L -273 200 C -231.4375 200, -181.5625 186, -140 186 C -95 186, -41 192, 4 192 C 36.1875 192, 74.8125 191, 107 191 C 160.75 191, 225.25 207, 279 207 C 326.1875 207, 382.8125 193, 430 193 L 585 200 L 585 877 Z"></path>
<path fill="#a64091" stroke="#a64091" d="M -210 877 L -280 222 C -231.5625 222, -173.4375 213, -125 213 C -89.6875 213, -47.3125 236, -12 236 C 47.375 236, 118.625 233, 178 233 C 238.9375 233, 312.0625 208, 373 208 C 419.5625 208, 475.4375 233, 522 233 L 585 222 L 585 877 Z"></path>
<path fill="#ac448f" stroke="#ac448f" d="M -210 877 L -287 244 C -224.8125 244, -150.1875 232, -88 232 C -53.3125 232, -11.6875 257, 23 257 C 67.375 257, 120.625 255, 165 255 C 211.25 255, 266.75 256, 313 256 C 351.125 256, 396.875 234, 435 234 L 585 244 L 585 877 Z"></path>
<path fill="#b1488d" stroke="#b1488d" d="M -210 877 L -294 266 C -242.125 266, -179.875 279, -128 279 C -87.0625 279, -37.9375 280, 3 280 C 46.75 280, 99.25 255, 143 255 C 190.1875 255, 246.8125 252, 294 252 C 336.5 252, 387.5 278, 430 278 L 585 266 L 585 877 Z"></path>
<path fill="#b74c8c" stroke="#b74c8c" d="M -210 877 L -301 289 C -254.125 289, -197.875 278, -151 278 C -106.9375 278, -54.0625 297, -10 297 C 25 297, 67 275, 102 275 C 139.5 275, 184.5 276, 222 276 C 278.5625 276, 346.4375 303, 403 303 L 585 289 L 585 877 Z"></path>
<path fill="#bb518b" stroke="#bb518b" d="M -210 877 L -308 311 C -272.6875 311, -230.3125 303, -195 303 C -147.5 303, -90.5 322, -43 322 C -8 322, 34 297, 69 297 C 119 297, 179 303, 229 303 C 264.9375 303, 308.0625 324, 344 324 C 379.3125 324, 421.6875 319, 457 319 L 585 311 L 585 877 Z"></path>
<path fill="#c05689" stroke="#c05689" d="M -210 877 L -315 333 C -281.25 333, -240.75 325, -207 325 C -166.0625 325, -116.9375 342, -76 342 C -41.3125 342, 0.3125 324, 35 324 C 80.3125 324, 134.6875 321, 180 321 C 229.0625 321, 287.9375 326, 337 326 C 377.9375 326, 427.0625 344, 468 344 L 585 333 L 585 877 Z"></path>
<path fill="#c45b89" stroke="#c45b89" d="M -210 877 L -322 355 C -289.8125 355, -251.1875 345, -219 345 C -162.4375 345, -94.5625 347, -38 347 C 19.5 347, 88.5 364, 146 364 C 193.1875 364, 249.8125 344, 297 344 C 329.1875 344, 367.8125 364, 400 364 L 585 355 L 585 877 Z"></path>
<path fill="#c76188" stroke="#c76188" d="M -210 877 L -329 377 C -275.5625 377, -211.4375 391, -158 391 C -125.1875 391, -85.8125 367, -53 367 C -10.5 367, 40.5 365, 83 365 C 124.875 365, 175.125 370, 217 370 C 266.375 370, 325.625 389, 375 389 L 585 377 L 585 877 Z"></path>
<path fill="#cb6688" stroke="#cb6688" d="M -210 877 L -336 400 C -294.75 400, -245.25 392, -204 392 C -171.1875 392, -131.8125 386, -99 386 C -63.375 386, -20.625 388, 15 388 C 48.125 388, 87.875 391, 121 391 C 155.0625 391, 195.9375 411, 230 411 C 289.6875 411, 361.3125 409, 421 409 L 585 400 L 585 877 Z"></path>
<path fill="#ce6c87" stroke="#ce6c87" d="M -210 877 L -343 422 C -288 422, -222 431, -167 431 C -124.8125 431, -74.1875 434, -32 434 C 18.625 434, 79.375 408, 130 408 C 161.5625 408, 199.4375 435, 231 435 C 264.125 435, 303.875 411, 337 411 C 381.6875 411, 435.3125 430, 480 430 L 585 422 L 585 877 Z"></path>
<path fill="#d17188" stroke="#d17188" d="M -210 877 L -350 444 C -300 444, -240 458, -190 458 C -140 458, -80 457, -30 457 C 2.5 457, 41.5 451, 74 451 C 113.0625 451, 159.9375 432, 199 432 C 235.875 432, 280.125 455, 317 455 C 353.5625 455, 397.4375 456, 434 456 L 585 444 L 585 877 Z"></path>
<path fill="#d37788" stroke="#d37788" d="M -210 877 L -357 466 C -294.8125 466, -220.1875 452, -158 452 C -111.125 452, -54.875 475, -8 475 C 27.3125 475, 69.6875 455, 105 455 C 141.25 455, 184.75 456, 221 456 C 262.5625 456, 312.4375 476, 354 476 C 401.1875 476, 457.8125 452, 505 452 L 585 466 L 585 877 Z"></path>
<path fill="#d57c89" stroke="#d57c89" d="M -210 877 L -364 489 C -307.75 489, -240.25 476, -184 476 C -148.375 476, -105.625 501, -70 501 C -35.625 501, 5.625 497, 40 497 C 74.375 497, 115.625 502, 150 502 C 194.6875 502, 248.3125 475, 293 475 C 349.875 475, 418.125 482, 475 482 L 585 489 L 585 877 Z"></path>
<path fill="#d7828a" stroke="#d7828a" d="M -210 877 L -371 511 C -309.75 511, -236.25 521, -175 521 C -117.5 521, -48.5 523, 9 523 C 53.6875 523, 107.3125 503, 152 503 C 203.875 503, 266.125 519, 318 519 C 353 519, 395 502, 430 502 L 585 511 L 585 877 Z"></path>
<path fill="#d9888c" stroke="#d9888c" d="M -210 877 L -378 533 C -331.75 533, -276.25 519, -230 519 C -192.8125 519, -148.1875 521, -111 521 C -50.6875 521, 21.6875 521, 82 521 C 124.5 521, 175.5 547, 218 547 C 251.75 547, 292.25 526, 326 526 C 371.625 526, 426.375 523, 472 523 L 585 533 L 585 877 Z"></path>
<path fill="#db8e8e" stroke="#db8e8e" d="M -210 877 L -385 555 C -333.4375 555, -271.5625 546, -220 546 C -183.4375 546, -139.5625 548, -103 548 C -67.0625 548, -23.9375 548, 12 548 C 72 548, 144 566, 204 566 C 253.375 566, 312.625 567, 362 567 C 409.1875 567, 465.8125 546, 513 546 L 585 555 L 585 877 Z"></path>
<path fill="#dc9390" stroke="#dc9390" d="M -210 877 L -392 578 C -360.75 578, -323.25 590, -292 590 C -242 590, -182 590, -132 590 C -97.625 590, -56.375 571, -22 571 C 19.875 571, 70.125 570, 112 570 C 168.875 570, 237.125 564, 294 564 C 353.375 564, 424.625 565, 484 565 L 585 578 L 585 877 Z"></path>
<path fill="#de9993" stroke="#de9993" d="M -210 877 L -399 600 C -350.5625 600, -292.4375 614, -244 614 C -195.25 614, -136.75 586, -88 586 C -52.6875 586, -10.3125 586, 25 586 C 77.8125 586, 141.1875 586, 194 586 C 241.8125 586, 299.1875 587, 347 587 C 404.5 587, 473.5 589, 531 589 L 585 600 L 585 877 Z"></path>
<path fill="#df9f96" stroke="#df9f96" d="M -210 877 L -406 622 C -350.6875 622, -284.3125 612, -229 612 C -192.75 612, -149.25 612, -113 612 C -77.0625 612, -33.9375 634, 2 634 C 55.125 634, 118.875 630, 172 630 C 219.8125 630, 277.1875 635, 325 635 C 370.3125 635, 424.6875 615, 470 615 L 585 622 L 585 877 Z"></path>
<path fill="#e0a499" stroke="#e0a499" d="M -210 877 L -413 644 C -372.375 644, -323.625 652, -283 652 C -234.5625 652, -176.4375 634, -128 634 C -80.1875 634, -22.8125 658, 25 658 C 84.375 658, 155.625 652, 215 652 C 274.6875 652, 346.3125 654, 406 654 L 585 644 L 585 877 Z"></path>
<path fill="#e1aa9d" stroke="#e1aa9d" d="M -210 877 L -420 667 C -384.6875 667, -342.3125 679, -307 679 C -266.375 679, -217.625 676, -177 676 C -130.75 676, -75.25 657, -29 657 C 32.875 657, 107.125 679, 169 679 C 201.1875 679, 239.8125 676, 272 676 C 320.4375 676, 378.5625 656, 427 656 L 585 667 L 585 877 Z"></path>
</svg>